# xmcd
#
# Track frame offsets:
#	150
#	5143
#	15463
#	24717
#	37435
#	40134
#	55607
#	61454
#	75277
#	87480
#	104734
#	117889
#	140858
#	159444
#	171088
#	193273
#	205897
#	225982
#	244435
#	261771
#	287537
#	289433
#	305303
#	324606
#	344189
#
# Disc length: 4755 seconds
#
# Revision: 0
# Processed by: cddbd v1.5.1PL2 Copyright (c) Steve Scherf et al.
# Submitted via: dBpowerAMP V4.0
#
DISCID=7a129119
DTITLE=Compilation Album - Various Artists
DYEAR=1900
DGENRE=Mixed
TTITLE0=000 Stay Alive Intro
TTITLE1=003 U Don't Know Weezy
TTITLE2=004 Diamonds On My Neck
TTITLE3=005 Damage Is Done
TTITLE4=006 Problem Interlude
TTITLE5=007 Weezy F. Baby
TTITLE6=008 Young Money Nigga
TTITLE7=009 I'm A Mothafuckin Menace
TTITLE8=010 Soul Survivor Feat Mac Maine
TTITLE9=011 New Orleans
TTITLE10=012 Blowing Up Fast
TTITLE11=013 93 94 Baby Ft Baby
TTITLE12=014 Suffix
TTITLE13=015 Anything
TTITLE14=Dear Summer
TTITLE15=017 Money In dDa Bank
TTITLE16=Fireman
TTITLE17=019 Shorty Bounce
TTITLE18=Lil Wayne - Tha Carter 2 - I Feel Like Fuckin Sumtin
TTITLE19=021 Don't Cry
TTITLE20=022 Emotional Outro
TTITLE21=02 - Trae ft Fat Pat Hawk - Swang
TTITLE22=Im With Whatever (Feat. Juelz Santana, Jim Jones and Lil Wayne)
TTITLE23=Spit Your Game (Dirty)
TTITLE24=Hold Ya Head
EXTD=Andre Gentry
EXTT0=
EXTT1=
EXTT2=
EXTT3=
EXTT4=
EXTT5=
EXTT6=
EXTT7=
EXTT8=
EXTT9=
EXTT10=
EXTT11=
EXTT12=
EXTT13=
EXTT14=
EXTT15=
EXTT16=
EXTT17=
EXTT18=
EXTT19=
EXTT20=
EXTT21=
EXTT22=
EXTT23=
EXTT24=
PLAYORDER=
